<svg width="156" height="43" viewBox="0 0 156 43" fill="none" xmlns="http://www.w3.org/2000/svg">
<g clip-path="url(#clip0_1009_96475)">
<path d="M3.31089 35.283C3.30705 35.2945 5.56145 34.0118 8.43033 32.3757C5.56145 34.0156 3.31474 35.3061 3.32626 35.3099C3.32626 35.3099 12.3822 50.7681 25.2711 36.7962C26.4463 35.5211 27.5178 34.0502 28.7583 32.2452C28.7583 32.2452 28.7353 31.7997 28.3743 31.6115C28.0132 31.4271 24.7872 30.033 24.7872 30.033C24.7872 30.033 24.3494 29.7142 23.8923 30.2903C23.4353 30.8664 20.2362 34.7031 17.0178 34.8375C17.0178 34.8375 24.2149 33.0901 20.336 25.578C15.8349 18.4231 10.6732 23.7345 10.6732 23.7345C12.4207 21.0308 17.3557 20.2204 18.0816 20.1206C18.8075 20.0207 18.7537 19.4792 18.7537 19.4792C18.7537 19.4792 19.1954 15.992 19.2184 15.5849C19.2414 15.1778 18.8689 14.932 18.8689 14.932C16.6837 15.0856 14.8709 15.2585 13.1772 15.6233C-5.40329 19.6328 3.31089 35.283 3.31089 35.283Z" fill="#677403"/>
<path d="M4.12433 34.7569C4.12049 34.7569 4.12817 34.7684 4.14354 34.7914C4.15506 34.8145 4.16274 34.826 4.16274 34.826C4.16274 34.826 4.16274 34.826 4.16274 34.8221C4.88476 35.9666 14.7357 50.8679 27.471 32.2682L24.5637 30.9931C24.5637 30.9931 19.8245 36.7962 15.3925 35.7669C15.3925 35.7669 19.7208 32.5524 20.2968 30.7819C20.8652 29.0383 19.7899 26.7148 19.4327 26.0772C19.4289 26.0734 19.4289 26.0696 19.425 26.0619C19.4212 26.058 19.4212 26.0542 19.4174 26.0465C19.0487 25.4128 17.5931 23.3082 15.8034 22.9126C13.9868 22.5094 9.01718 24.6025 9.01718 24.6025C10.3844 20.2627 17.789 19.1297 17.789 19.1297L18.1615 15.9728C-4.32485 17.4975 3.50601 33.5548 4.12433 34.7569ZM8.35661 32.3872C9.56638 31.6959 10.9182 30.924 12.2548 30.1597C10.9221 30.924 9.56638 31.6959 8.35661 32.3872Z" fill="#778602"/>
<mask id="mask0_1009_96475" style="mask-type:luminance" maskUnits="userSpaceOnUse" x="2" y="15" width="26" height="27">
<path d="M4.13136 34.7645C4.12752 34.7645 4.1352 34.7761 4.14672 34.7953C4.15825 34.8183 4.16209 34.826 4.16209 34.826C4.16209 34.826 4.16209 34.826 4.16209 34.8221C4.8457 35.9129 14.7159 50.914 27.4742 32.2759L24.5669 30.997C24.5669 30.997 19.8276 36.8 15.3957 35.7708C15.3957 35.7708 19.7239 32.5562 20.3 30.7857C20.8646 29.0537 19.7969 26.734 19.4321 26.0734C19.4282 26.0657 19.4244 26.058 19.4205 26.0542C19.4167 26.0465 19.4129 26.0388 19.409 26.035C19.025 25.3859 17.5809 23.3082 15.8028 22.9126C13.9862 22.5094 9.01653 24.6025 9.01653 24.6025C10.3838 20.2627 17.7883 19.1297 17.7883 19.1297L18.1608 15.9728C-4.36775 17.5013 3.54376 33.6201 4.13136 34.7645Z" fill="white"/>
</mask>
<g mask="url(#mask0_1009_96475)">
<path opacity="0.79" d="M14.6979 36.4697C19.027 36.4697 22.5365 32.9602 22.5365 28.6311C22.5365 24.302 19.027 20.7926 14.6979 20.7926C10.3688 20.7926 6.85938 24.302 6.85938 28.6311C6.85938 32.9602 10.3688 36.4697 14.6979 36.4697Z" fill="url(#paint0_radial_1009_96475)"/>
</g>
<mask id="mask1_1009_96475" style="mask-type:luminance" maskUnits="userSpaceOnUse" x="2" y="15" width="26" height="27">
<path d="M4.13136 34.7645C4.12752 34.7645 4.1352 34.7761 4.14672 34.7953C4.15825 34.8183 4.16209 34.826 4.16209 34.826C4.16209 34.826 4.16209 34.826 4.16209 34.8221C4.8457 35.9129 14.7159 50.914 27.4742 32.2759L24.5669 30.997C24.5669 30.997 19.8276 36.8 15.3957 35.7708C15.3957 35.7708 19.7239 32.5562 20.3 30.7857C20.8646 29.0537 19.7969 26.734 19.4321 26.0734C19.4282 26.0657 19.4244 26.058 19.4205 26.0542C19.4167 26.0465 19.4129 26.0388 19.409 26.035C19.025 25.3859 17.5809 23.3082 15.8028 22.9126C13.9862 22.5094 9.01653 24.6025 9.01653 24.6025C10.3838 20.2627 17.7883 19.1297 17.7883 19.1297L18.1608 15.9728C-4.36775 17.5013 3.54376 33.6201 4.13136 34.7645Z" fill="white"/>
</mask>
<g mask="url(#mask1_1009_96475)">
<path opacity="0.52" d="M9.614 23.7192C6.03078 23.4311 3.92232 25.3322 4.9055 27.9591C5.88868 30.586 9.59096 32.9518 13.1742 33.2399C16.7574 33.5279 18.8659 31.6268 17.8827 28.9999C16.8995 26.3691 13.1972 24.0072 9.614 23.7192Z" fill="url(#paint1_radial_1009_96475)"/>
</g>
<mask id="mask2_1009_96475" style="mask-type:luminance" maskUnits="userSpaceOnUse" x="2" y="15" width="26" height="27">
<path d="M4.13136 34.7645C4.12752 34.7645 4.1352 34.7761 4.14672 34.7953C4.15825 34.8183 4.16209 34.826 4.16209 34.826C4.16209 34.826 4.16209 34.826 4.16209 34.8221C4.8457 35.9129 14.7159 50.914 27.4742 32.2759L24.5669 30.997C24.5669 30.997 19.8276 36.8 15.3957 35.7708C15.3957 35.7708 19.7239 32.5562 20.3 30.7857C20.8646 29.0537 19.7969 26.734 19.4321 26.0734C19.4282 26.0657 19.4244 26.058 19.4205 26.0542C19.4167 26.0465 19.4129 26.0388 19.409 26.035C19.025 25.3859 17.5809 23.3082 15.8028 22.9126C13.9862 22.5094 9.01653 24.6025 9.01653 24.6025C10.3838 20.2627 17.7883 19.1297 17.7883 19.1297L18.1608 15.9728C-4.36775 17.5013 3.54376 33.6201 4.13136 34.7645Z" fill="white"/>
</mask>
<g mask="url(#mask2_1009_96475)">
<path opacity="0.52" d="M9.36175 33.3359C9.48849 36.9268 11.62 38.8048 14.1163 37.5221C16.6165 36.2432 18.5368 32.2913 18.4062 28.7004C18.2756 25.1095 16.148 23.2314 13.6516 24.5142C11.1514 25.7931 9.23117 29.7412 9.36175 33.3359Z" fill="url(#paint2_radial_1009_96475)"/>
</g>
<path d="M3.17659 29.6373C3.17659 29.6373 2.79638 30.2057 2.65428 30.5168C2.65428 30.5168 2.55442 30.0636 2.53906 29.9715L3.17659 29.6373Z" fill="#389A00"/>
<path d="M14.8952 28.6849L10.3711 31.2696L11.4464 33.6431L14.8952 28.6849Z" fill="#161D2F"/>
<path d="M8.11924 38.2939C8.11924 38.2939 7.43562 38.3324 7.09766 38.2978C7.09766 38.2978 7.43562 38.6127 7.50859 38.6742L8.11924 38.2939Z" fill="#389A00"/>
<path d="M4.12891 34.7569C4.12891 34.7569 14.2487 51.5977 27.4794 32.2721L24.5683 30.9932C24.5683 30.9932 18.3811 38.7587 13.2579 34.7108L11.5603 33.7084L10.2354 31.2889L4.12891 34.7569Z" fill="url(#paint3_radial_1009_96475)"/>
<path d="M8.91828 37.8562C8.91828 37.8562 13.911 42.8143 20.3362 38.6128L20.4053 39.0429C20.4053 39.0429 14.2297 44.0433 7.75459 38.2671L7.56641 37.933L8.91828 37.8562Z" fill="url(#paint4_linear_1009_96475)"/>
<path d="M7.09375 38.294C7.09375 38.294 9.30974 38.559 11.5027 37.714L11.1494 36.4275L12.8277 36.4006L14.7134 28.7848L14.1872 29.0651L7.09375 38.294Z" fill="url(#paint5_radial_1009_96475)"/>
<path d="M7.09766 38.2979C7.09766 38.2979 9.31365 38.5629 11.5066 37.7179L11.1533 36.4314L12.8316 36.4045L14.7173 28.7887L14.1911 29.0691L12.4898 35.9436L10.5311 35.9628L10.9651 37.4107C10.9651 37.4107 8.91039 38.0866 7.82352 37.6949L7.09766 38.2979Z" fill="#677403"/>
<path d="M4.16344 34.8299C4.16344 34.8299 -5.20364 17.559 18.1622 15.9767L17.7897 19.1336C17.7897 19.1336 7.86956 20.6737 8.81817 27.0298L8.84122 28.9577L10.2545 31.3273L4.16344 34.8299Z" fill="url(#paint6_linear_1009_96475)"/>
<path d="M2.64453 30.5169C2.64453 30.5169 3.54322 28.4737 5.38284 27.0105L6.31225 27.9706L7.19173 26.5381L14.7115 28.7848L14.2007 29.0959L2.64453 30.5169Z" fill="url(#paint7_radial_1009_96475)"/>
<path opacity="0.41" d="M4.13032 32.3834C5.78559 31.4386 7.72891 31.7228 8.47013 33.0248C9.21135 34.3267 8.47013 36.1433 6.81486 37.0881C5.15958 38.0328 3.21627 37.7486 2.47505 36.4467C1.73382 35.1447 2.47505 33.3282 4.13032 32.3834Z" fill="url(#paint8_radial_1009_96475)"/>
<path opacity="0.77" d="M8.28693 26.4498C8.28693 26.4498 7.89135 21.7912 13.9824 19.5791L13.4601 18.7495C13.4601 18.7495 7.54571 21.4917 8.28693 26.4498Z" fill="url(#paint9_linear_1009_96475)"/>
<path d="M3.95897 29.1728C3.95897 29.1728 2.22688 22.352 9.10529 18.9531L8.77116 18.6727C8.77116 18.6727 1.3282 21.4533 3.01419 29.9639L3.20238 30.298L3.95897 29.1728Z" fill="url(#paint10_linear_1009_96475)"/>
<path d="M2.65234 30.5169C2.65234 30.5169 3.55103 28.4737 5.39065 27.0105L6.32006 27.9706L7.19954 26.5381L14.7193 28.7848L14.2085 29.0959L7.42229 27.0681L6.40839 28.7464L5.38297 27.6365C5.38297 27.6365 3.75842 29.0652 3.54335 30.1981L2.65234 30.5169Z" fill="#677403"/>
<path d="M14.8969 28.6849L10.3727 31.2696L8.87109 29.1381L14.8969 28.6849Z" fill="#161D2F"/>
<path d="M14.8952 28.6812L10.3711 31.2658L11.4464 33.6431L14.8952 28.6812Z" fill="#161D2F"/>
<path d="M8.29549 38.1949C11.2073 36.5316 12.4607 33.2453 11.0951 30.8547C9.72958 28.4642 6.26212 27.8746 3.35035 29.5379C0.438581 31.2012 -0.814868 34.4875 0.550695 36.8781C1.91626 39.2686 5.38372 39.8582 8.29549 38.1949Z" fill="#677403"/>
<path d="M3.83795 30.3864C6.28821 28.9846 9.16477 29.4109 10.2632 31.335C11.3616 33.2591 10.267 35.9513 7.8129 37.3531C5.3588 38.7549 2.48608 38.3248 1.38768 36.4007C0.289288 34.4766 1.38384 31.7843 3.83795 30.3864Z" fill="url(#paint11_radial_1009_96475)"/>
<path opacity="0.77" d="M13.4609 35.5134C13.4609 35.5134 17.2708 38.221 22.2711 34.1001L22.7205 34.9719C22.7205 34.9681 17.3552 38.6703 13.4609 35.5134Z" fill="url(#paint12_linear_1009_96475)"/>
<path opacity="0.56" d="M20.3086 30.7896C20.8732 29.0575 19.8055 26.7378 19.4406 26.0772C19.4368 26.0696 19.433 26.0619 19.4291 26.058C19.4253 26.0504 19.4214 26.0427 19.4176 26.0388C19.0335 25.3898 17.5895 23.3121 15.8113 22.9165C15.3927 22.8243 14.8013 22.8627 14.1445 22.9818L14.2828 23.2352C14.6745 23.1968 15.024 23.2007 15.2967 23.2621C17.0749 23.6577 18.5189 25.7316 18.903 26.3845C18.9068 26.3922 18.9106 26.3999 18.9145 26.4037C18.9183 26.4114 18.9222 26.4191 18.926 26.4229C19.2947 27.0835 20.3585 29.4032 19.794 31.1352C19.6903 31.4502 19.4675 31.815 19.1718 32.1952L19.2601 32.3565C19.7671 31.792 20.1588 31.2428 20.3086 30.7896Z" fill="url(#paint13_linear_1009_96475)"/>
<path d="M4.23867 30.9893C6.32792 29.9216 8.70138 30.3863 9.53861 32.0262C10.3759 33.6662 9.35811 35.8591 7.26886 36.9268C5.1796 37.9944 2.80615 37.5297 1.96891 35.8898C1.13167 34.2499 2.14942 32.057 4.23867 30.9893Z" fill="url(#paint14_linear_1009_96475)"/>
<path d="M40.4563 35.4943C40.4679 35.4905 38.2403 34.1655 35.3945 32.4833C38.2403 34.1616 40.4755 35.479 40.4717 35.4636C40.4717 35.4636 49.4202 19.944 30.8972 15.6618C29.2074 15.27 27.3985 15.0703 25.2132 14.886C25.2132 14.886 24.8369 15.1279 24.8561 15.535C24.8714 15.9421 25.2632 19.4332 25.2632 19.4332C25.2632 19.4332 25.2017 19.9709 25.9276 20.0822C26.6534 20.1936 31.5732 21.0731 33.2822 23.8076C33.2822 23.8076 28.2012 18.4193 23.5925 25.5051C19.6022 32.9557 26.7763 34.8107 26.7763 34.8107C23.558 34.6302 20.4164 30.7436 19.9709 30.1636C19.5216 29.5837 19.0799 29.8948 19.0799 29.8948C19.0799 29.8948 15.8308 31.239 15.4698 31.4195C15.1049 31.6 15.0742 32.0455 15.0742 32.0455C16.2878 33.8698 17.3363 35.3561 18.4961 36.6503C31.1738 50.8181 40.4563 35.4943 40.4563 35.4943Z" fill="#094CB5"/>
<path d="M39.5941 35.045C39.5979 35.045 39.5979 35.0489 39.5941 35.045C39.5941 35.0489 39.6018 35.0374 39.6172 35.0105C39.6325 34.9874 39.6402 34.9759 39.6402 34.9759C39.6402 34.9759 39.6402 34.9759 39.6364 34.9759C40.2739 33.7815 48.3429 17.8433 25.8795 15.9883L26.206 19.149C26.206 19.149 33.5952 20.3934 34.8971 24.7524C34.8971 24.7524 29.962 22.5863 28.1378 22.9589C26.3404 23.3276 24.8541 25.413 24.4777 26.039C24.4739 26.0428 24.4739 26.0467 24.4701 26.0505C24.4662 26.0543 24.4662 26.0582 24.4624 26.062C24.0937 26.6957 22.9838 29 23.5291 30.7552C24.0783 32.5333 28.3567 35.8131 28.3567 35.8131C23.9093 36.7733 19.2585 30.9011 19.2585 30.9011L16.3281 32.1454C28.783 50.9333 38.8567 36.178 39.5941 35.045ZM35.4386 32.5448C34.2404 31.8382 32.8962 31.0432 31.5751 30.2597C32.9001 31.0394 34.2404 31.8343 35.4386 32.5448Z" fill="#064996"/>
<mask id="mask3_1009_96475" style="mask-type:luminance" maskUnits="userSpaceOnUse" x="16" y="15" width="26" height="27">
<path d="M39.5979 35.0373C39.6018 35.0412 39.6018 35.0412 39.5979 35.0373C39.5979 35.0412 39.6056 35.0297 39.6172 35.0066C39.6287 34.9874 39.6364 34.9759 39.6364 34.9759C39.6364 34.9759 39.6364 34.9759 39.6325 34.9759C40.2393 33.8391 48.3889 17.8394 25.8795 15.9806L26.206 19.1414C26.206 19.1414 33.5952 20.3857 34.8971 24.7447C34.8971 24.7447 29.962 22.5786 28.1378 22.9512C26.3519 23.3199 24.8656 25.3938 24.4739 26.039C24.4701 26.0466 24.4662 26.0543 24.4624 26.0582C24.4585 26.0658 24.4547 26.0735 24.4509 26.0774C24.0745 26.7303 22.9876 29.0154 23.5253 30.7551C24.0745 32.5333 28.3529 35.8131 28.3529 35.8131C23.9055 36.7733 19.2546 30.9011 19.2546 30.9011L16.3281 32.1454C28.8099 50.9717 38.899 36.1165 39.5979 35.0373Z" fill="white"/>
</mask>
<g mask="url(#mask3_1009_96475)">
<path opacity="0.74" d="M29.0417 36.7348C33.3708 36.7348 36.8802 33.2254 36.8802 28.8963C36.8802 24.5672 33.3708 21.0577 29.0417 21.0577C24.7126 21.0577 21.2031 24.5672 21.2031 28.8963C21.2031 33.2254 24.7126 36.7348 29.0417 36.7348Z" fill="url(#paint15_radial_1009_96475)"/>
</g>
<path d="M35.6211 38.4055C35.6211 38.4055 36.3047 38.4554 36.6427 38.4247C36.6427 38.4247 36.3009 38.7358 36.2279 38.7934L35.6211 38.4055Z" fill="#389A00"/>
<path d="M28.9883 28.6965L33.474 31.3465L35.0026 29.238L28.9883 28.6965Z" fill="#161D2F"/>
<path d="M40.6953 29.8257C40.6953 29.8257 41.0678 30.4018 41.2061 30.7128C41.2061 30.7128 41.3136 30.2635 41.329 30.1713L40.6953 29.8257Z" fill="#389A00"/>
<path d="M39.5973 35.045C39.5973 35.045 49.2179 17.9162 25.8789 15.9883L26.2054 19.149C26.2054 19.149 36.0179 20.6814 35.0348 27.1335L35.004 29.1076L33.5561 31.458L39.5973 35.045Z" fill="url(#paint16_radial_1009_96475)"/>
<path d="M39.9184 29.3456C39.9184 29.3456 41.7542 22.5517 34.9219 19.0492L35.2637 18.7765C35.2637 18.7765 42.6644 21.6684 40.8517 30.1522L40.6558 30.4825L39.9184 29.3456Z" fill="url(#paint17_linear_1009_96475)"/>
<path d="M41.2003 30.7168C41.2003 30.7168 40.3323 28.6621 38.5158 27.1719L37.571 28.1167L36.7146 26.6688L29.1641 28.8003L29.6672 29.1191L41.2003 30.7168Z" fill="url(#paint18_radial_1009_96475)"/>
<path d="M41.2003 30.7129C41.2003 30.7129 40.3323 28.6582 38.5158 27.1681L37.571 28.1129L36.7146 26.6688L29.1641 28.8003L29.6672 29.1191L36.4841 27.195L37.4711 28.8887L38.5158 27.7941C38.5158 27.7941 40.1211 29.2458 40.317 30.3826L41.2003 30.7129Z" fill="#094CB5"/>
<path d="M39.6402 34.9797C39.6402 34.9797 29.2707 51.6669 16.3281 32.1492L19.2546 30.9126C19.2546 30.9126 25.5032 38.7703 30.5573 34.7954L32.2241 33.8199L33.5837 31.4195L39.6402 34.9797Z" fill="url(#paint19_linear_1009_96475)"/>
<path d="M36.6494 38.4362C36.6494 38.4362 34.4296 38.6666 32.2481 37.7909L32.6207 36.5082L30.9424 36.4544L29.1719 28.8118L29.6942 29.0998L36.6494 38.4362Z" fill="url(#paint20_radial_1009_96475)"/>
<path opacity="0.41" d="M37.5348 36.2202C35.8949 35.2485 35.1805 33.4204 35.941 32.1338C36.7014 30.8473 38.6485 30.59 40.2884 31.5578C41.9284 32.5294 42.6427 34.3575 41.8823 35.6441C41.1218 36.9307 39.1747 37.188 37.5348 36.2202Z" fill="url(#paint21_radial_1009_96475)"/>
<path d="M30.3222 35.5443C30.3222 35.5443 26.4702 38.1942 21.5351 34.0004L21.0742 34.8645C21.0704 34.8645 26.3818 38.6474 30.3222 35.5443Z" fill="url(#paint22_linear_1009_96475)"/>
<path d="M34.8266 37.96C34.8266 37.96 29.7609 42.8413 23.3971 38.5476L23.3203 38.9777C23.3203 38.9777 29.4191 44.0664 35.9826 38.3901L36.1784 38.0598L34.8266 37.96Z" fill="url(#paint23_linear_1009_96475)"/>
<path d="M36.6416 38.4285C36.6416 38.4285 34.4218 38.6589 32.2403 37.7833L32.6129 36.5005L30.9346 36.4468L29.1641 28.8041L29.6864 29.0921L31.284 35.9897L33.2427 36.0397L32.7818 37.4837C32.7818 37.4837 34.8289 38.1904 35.9196 37.814L36.6416 38.4285Z" fill="#094CB5"/>
<path d="M28.9883 28.6965L33.474 31.3465L32.3641 33.7046L28.9883 28.6965Z" fill="#161D2F"/>
<path d="M28.9883 28.6965L33.474 31.3503L35.0026 29.238L28.9883 28.6965Z" fill="#161D2F"/>
<path d="M43.209 37.1038C44.6101 34.7339 43.4058 31.4293 40.5192 29.7227C37.6326 28.0162 34.1567 28.554 32.7556 30.9239C31.3545 33.2938 32.5588 36.5984 35.4454 38.305C38.3321 40.0115 41.8079 39.4737 43.209 37.1038Z" fill="#094CB5"/>
<path d="M35.9396 37.4645C33.5086 36.0281 32.4524 33.3167 33.5816 31.4118C34.7107 29.5069 37.5911 29.1228 40.0221 30.5592C42.4532 31.9955 43.5093 34.707 42.3802 36.6119C41.2511 38.5168 38.3707 38.9008 35.9396 37.4645Z" fill="url(#paint24_radial_1009_96475)"/>
<path opacity="0.77" d="M35.627 26.5613C35.627 26.5613 36.0917 21.9104 30.0352 19.6061L30.569 18.7842C30.5728 18.7842 36.445 21.6147 35.627 26.5613Z" fill="url(#paint25_linear_1009_96475)"/>
<path d="M36.2087 36.7848C34.1886 35.5904 33.3091 33.3398 34.2462 31.7537C35.1833 30.1675 37.5798 29.8526 39.5999 31.047C41.62 32.2414 42.4995 34.492 41.5624 36.0781C40.6253 37.6604 38.2288 37.9792 36.2087 36.7848Z" fill="url(#paint26_linear_1009_96475)"/>
<path opacity="0.56" d="M28.1341 22.9511C26.3482 23.3198 24.8619 25.3937 24.4702 26.0389C24.4663 26.0466 24.4625 26.0542 24.4587 26.0581C24.4548 26.0658 24.451 26.0734 24.4471 26.0773C24.0708 26.7302 22.9839 29.0153 23.5216 30.7551C23.6483 31.166 23.9748 31.6576 24.4011 32.1722L24.5547 31.9264C24.3281 31.6038 24.1591 31.3004 24.0746 31.0316C23.5369 29.2918 24.6238 27.0067 25.0002 26.3538C25.004 26.3461 25.0079 26.3384 25.0117 26.3346C25.0155 26.3269 25.0194 26.3192 25.0232 26.3154C25.415 25.6702 26.9051 23.5925 28.6871 23.2276C29.0135 23.1623 29.4398 23.1738 29.9161 23.243L30.0121 23.0894C29.2747 22.9242 28.6026 22.8551 28.1341 22.9511Z" fill="url(#paint27_linear_1009_96475)"/>
<path d="M21.9989 3.18385C21.9912 3.17617 21.9835 5.76854 21.9835 9.0714C21.9797 5.76854 21.9758 3.17617 21.9682 3.18385C21.9682 3.18385 4.05588 3.37972 9.79365 21.5032C10.316 23.1585 11.0649 24.8176 12.0173 26.7916C12.0173 26.7916 12.4167 26.9914 12.7585 26.7686C13.1004 26.5459 15.9078 24.4374 15.9078 24.4374C15.9078 24.4374 16.4032 24.2146 16.1305 23.5349C15.8579 22.8551 14.1143 18.1696 15.5929 15.3084C15.5929 15.3084 13.542 22.425 21.9874 22.7821C30.4327 22.425 28.3819 15.3084 28.3819 15.3084C29.8643 18.1696 28.1169 22.8513 27.8442 23.5349C27.5715 24.2146 28.0669 24.4374 28.0669 24.4374C28.0669 24.4374 30.8782 26.5497 31.2162 26.7686C31.5541 26.9875 31.9574 26.7916 31.9574 26.7916C32.9098 24.8176 33.6549 23.1585 34.1811 21.5032C39.915 3.37972 21.9989 3.18385 21.9989 3.18385Z" fill="#276A02"/>
<path d="M22.0508 4.15547C22.0508 4.15163 22.0508 4.15163 22.0508 4.15547C22.0508 4.15163 22.0393 4.15163 22.0124 4.15547C21.9855 4.15547 21.9702 4.15547 21.9702 4.15547C21.9702 4.15547 21.9702 4.15547 21.9702 4.15931C20.6183 4.21692 2.79051 5.3806 12.6261 25.6625L15.1801 23.7729C15.1801 23.7729 12.4917 16.7793 15.5833 13.4419C15.5833 13.4419 16.2286 18.7918 17.4806 20.1705C18.7134 21.5301 21.2635 21.749 21.997 21.7528C22.0009 21.7528 22.0086 21.7528 22.0124 21.7528C22.0162 21.7528 22.0239 21.7528 22.0278 21.7528C22.7613 21.7451 25.3114 21.5301 26.5442 20.1705C27.7963 18.7918 28.4415 13.4419 28.4415 13.4419C31.5331 16.7832 28.8447 23.7729 28.8447 23.7729L31.3987 25.6625C41.2266 5.37676 23.3988 4.21308 22.0508 4.15547ZM22.0086 9.00607C22.0086 10.4002 22.0086 11.9556 22.0086 13.4918C22.0086 11.9556 22.0086 10.3963 22.0086 9.00607Z" fill="#389A00"/>
<mask id="mask4_1009_96475" style="mask-type:luminance" maskUnits="userSpaceOnUse" x="9" y="4" width="26" height="22">
<path d="M22.0426 4.15547C22.0465 4.15163 22.0465 4.15163 22.0426 4.15547C22.0426 4.15163 22.0311 4.15163 22.0081 4.15547C21.985 4.15547 21.9697 4.15547 21.9697 4.15547C21.9697 4.15547 21.9697 4.15547 21.9697 4.15931C20.6831 4.21308 2.76314 5.33835 12.618 25.6625L15.1719 23.7729C15.1719 23.7729 12.4835 16.7793 15.5752 13.4419C15.5752 13.4419 16.2204 18.7918 17.4724 20.1705C18.6975 21.5185 21.24 21.7451 21.9966 21.7528C22.0042 21.7528 22.0119 21.7528 22.0196 21.7528C22.0273 21.7528 22.035 21.7528 22.0426 21.7528C22.7992 21.7451 25.3186 21.5185 26.5399 20.1705C27.7919 18.7918 28.4371 13.4419 28.4371 13.4419C31.5288 16.7832 28.8404 23.7729 28.8404 23.7729L31.3944 25.6625C41.253 5.33451 23.3292 4.20924 22.0426 4.15547Z" fill="white"/>
</mask>
<g mask="url(#mask4_1009_96475)">
<path opacity="0.74" d="M26.5729 25.2055C30.902 25.2055 34.4115 21.6961 34.4115 17.367C34.4115 13.0379 30.902 9.52844 26.5729 9.52844C22.2438 9.52844 18.7344 13.0379 18.7344 17.367C18.7344 21.6961 22.2438 25.2055 26.5729 25.2055Z" fill="url(#paint28_linear_1009_96475)"/>
</g>
<path d="M26.968 5.8683C26.968 5.8683 26.6607 5.25381 26.4648 4.97729C26.4648 4.97729 26.9065 5.11555 26.9948 5.14628L26.968 5.8683Z" fill="#389A00"/>
<path d="M21.983 16.5181V11.3065L19.3906 11.0646L21.983 16.5181Z" fill="#161D2F"/>
<path d="M16.9995 5.86842C16.9995 5.86842 17.3068 5.25394 17.5027 4.97742C17.5027 4.97742 17.061 5.11568 16.9727 5.1464L16.9995 5.86842Z" fill="#389A00"/>
<path d="M22.0534 4.15552C22.0534 4.15552 2.41289 4.5895 12.6287 25.6625L15.1827 23.773C15.1827 23.773 11.5073 14.548 17.5638 12.1093L19.2805 11.1299L22.038 11.1799L22.0534 4.15552Z" fill="url(#paint29_radial_1009_96475)"/>
<path d="M16.9842 6.77855C16.9842 6.77855 10.2018 8.65657 10.6626 16.3184L10.2555 16.1648C10.2555 16.1648 8.97664 8.32245 17.2031 5.56494H17.5871L16.9842 6.77855Z" fill="url(#paint30_linear_1009_96475)"/>
<path d="M17.5102 4.97729C17.5102 4.97729 16.1814 6.77083 15.8242 9.09435L17.1185 9.42464L16.3081 10.8994L21.9883 16.3146L22.0036 15.7193L17.5102 4.97729Z" fill="url(#paint31_radial_1009_96475)"/>
<path d="M17.5063 4.97742C17.5063 4.97742 16.1775 6.77095 15.8203 9.09447L17.1146 9.42476L16.3042 10.8995L21.9844 16.3147L21.9997 15.7194L16.8765 10.8304L17.8289 9.11752L16.3541 8.77571C16.3541 8.77571 16.7881 6.65573 17.6638 5.90683L17.5063 4.97742Z" fill="#276A02"/>
<path d="M21.9727 4.15161C21.9727 4.15161 41.6132 4.58559 31.3973 25.6586L28.8434 23.7691C28.8434 23.7691 32.4266 14.3905 26.4354 12.0631L24.7494 11.126L21.9919 11.176L21.9727 4.15161Z" fill="#389A00"/>
<path d="M26.47 4.96973C26.47 4.96973 27.7988 6.76326 28.156 9.08678L26.8617 9.41707L27.6721 10.8918L21.9919 16.307L21.9766 15.7117L26.47 4.96973Z" fill="url(#paint32_radial_1009_96475)"/>
<path opacity="0.41" d="M21.4029 8.78713C22.8982 8.78713 24.1105 7.24132 24.1105 5.33448C24.1105 3.42764 22.8982 1.88184 21.4029 1.88184C19.9075 1.88184 18.6953 3.42764 18.6953 5.33448C18.6953 7.24132 19.9075 8.78713 21.4029 8.78713Z" fill="url(#paint33_radial_1009_96475)"/>
<path d="M27.2031 11.8865C27.2031 11.8865 31.4431 13.8528 30.3447 20.2396L31.324 20.1974C31.324 20.1974 31.8771 13.6992 27.2031 11.8865Z" fill="url(#paint34_linear_1009_96475)"/>
<path d="M27.5878 12.6738L28.0256 13.0118C28.0256 13.0118 27.3228 17.6512 26.4625 18.6727L25.4141 17.3439C25.4141 17.3439 27.1961 14.2753 27.5878 12.6738Z" fill="url(#paint35_linear_1009_96475)"/>
<path d="M26.9858 6.77855C26.9858 6.77855 33.7682 8.65658 33.3073 16.3184L33.7144 16.1648C33.7144 16.1648 34.9933 8.32245 26.7669 5.56494H26.3828L26.9858 6.77855Z" fill="url(#paint36_linear_1009_96475)"/>
<path d="M26.4661 4.97742C26.4661 4.97742 27.7949 6.77095 28.1521 9.09447L26.8578 9.42476L27.6682 10.8995L21.988 16.3147L21.9727 15.7194L27.0959 10.8304L26.1435 9.11752L27.6182 8.77571C27.6182 8.77571 27.1843 6.65573 26.3086 5.90683L26.4661 4.97742Z" fill="#276A02"/>
<path d="M21.9844 16.5181V11.3065L24.5806 11.0646L21.9844 16.5181Z" fill="#161D2F"/>
<path d="M21.9868 16.5181V11.3065L19.3906 11.0646L21.9868 16.5181Z" fill="#161D2F"/>
<path d="M21.985 12.1438C24.7382 12.1438 26.97 9.4253 26.97 6.07189C26.97 2.71848 24.7382 0 21.985 0C19.2319 0 17 2.71848 17 6.07189C17 9.4253 19.2319 12.1438 21.985 12.1438Z" fill="#276A02"/>
<path d="M21.9822 11.1836C24.1966 11.1836 25.9917 8.89499 25.9917 6.07184C25.9917 3.24869 24.1966 0.960083 21.9822 0.960083C19.7678 0.960083 17.9727 3.24869 17.9727 6.07184C17.9727 8.89499 19.7678 11.1836 21.9822 11.1836Z" fill="url(#paint37_radial_1009_96475)"/>
<path d="M24.2849 2.54621C24.2849 2.54621 22.4453 3.06469 21.7463 3.96721C21.0473 4.86974 19.8644 6.79001 20.5135 10.1313V10.1351C19.3037 9.40158 18.5625 7.93449 18.5625 6.07183C18.5625 3.52171 20.141 1.45166 22.0881 1.45166C22.9983 1.45166 23.6704 1.79731 24.2964 2.53853L24.2849 2.54621Z" fill="url(#paint38_linear_1009_96475)"/>
<path d="M16.7622 11.8865C16.7622 11.8865 12.5223 13.8528 13.6207 20.2396L12.6413 20.1974C12.6413 20.1974 12.0883 13.6992 16.7622 11.8865Z" fill="url(#paint39_linear_1009_96475)"/>
<path d="M22.2986 8.57971C23.7558 8.57971 24.9371 7.07517 24.9371 5.21924C24.9371 3.3633 23.7558 1.85876 22.2986 1.85876C20.8414 1.85876 19.6602 3.3633 19.6602 5.21924C19.6602 7.07517 20.8414 8.57971 22.2986 8.57971Z" fill="url(#paint40_radial_1009_96475)"/>
<mask id="mask5_1009_96475" style="mask-type:luminance" maskUnits="userSpaceOnUse" x="23" y="13" width="6" height="8">
<path d="M28.2227 15.0549C28.2227 15.0549 29.6283 16.3568 28.6298 20.904C28.6298 20.904 25.0811 20.8003 24.9774 20.6237C24.8737 20.447 23.5987 19.2449 23.6256 18.4269C23.6525 17.6088 23.1647 15.9228 23.2684 15.3621C23.3721 14.8014 23.3951 14.5441 23.7293 14.3905C24.0595 14.2368 24.2401 13.8029 25.2117 13.9565C26.1795 14.1101 28.2227 15.0549 28.2227 15.0549Z" fill="white"/>
</mask>
<g mask="url(#mask5_1009_96475)">
<path d="M40.4602 35.4942C40.4718 35.4904 38.2443 34.1654 35.3984 32.4832C38.2443 34.1615 40.4795 35.4788 40.4756 35.4635C40.4756 35.4635 49.4241 19.9439 30.9011 15.6617C29.2113 15.2699 27.4024 15.0702 25.2171 14.8859C25.2171 14.8859 24.8408 15.1278 24.86 15.5349C24.8753 15.942 25.2671 19.4331 25.2671 19.4331C25.2671 19.4331 25.2056 19.9707 25.9315 20.0821C26.6573 20.1935 31.5771 21.073 33.2861 23.8074C33.2861 23.8074 28.2051 18.4192 23.5964 25.505C19.6061 32.9556 26.7802 34.8106 26.7802 34.8106C23.5619 34.6301 20.4203 30.7434 19.9748 30.1635C19.5255 29.5836 19.0838 29.8947 19.0838 29.8947C19.0838 29.8947 15.8347 31.2389 15.4737 31.4194C15.1088 31.5999 15.0781 32.0454 15.0781 32.0454C16.2917 33.8696 17.3402 35.3559 18.5 36.6502C31.1777 50.8179 40.4602 35.4942 40.4602 35.4942Z" fill="#094CB5"/>
<path d="M39.598 35.0448C39.6019 35.0448 39.6019 35.0486 39.598 35.0448C39.598 35.0486 39.6057 35.0371 39.6211 35.0102C39.6364 34.9872 39.6441 34.9757 39.6441 34.9757C39.6441 34.9757 39.6441 34.9757 39.6403 34.9757C40.2778 33.7813 48.3468 17.843 25.8835 15.988L26.2099 19.1488C26.2099 19.1488 33.5991 20.3931 34.901 24.7521C34.901 24.7521 29.9659 22.5861 28.1417 22.9586C26.3443 23.3273 24.858 25.4127 24.4817 26.0387C24.4778 26.0426 24.4778 26.0464 24.474 26.0502C24.4701 26.0541 24.4701 26.0579 24.4663 26.0618C24.0976 26.6955 22.9877 28.9998 23.533 30.7549C24.0822 32.5331 28.3606 35.8129 28.3606 35.8129C23.9133 36.773 19.2624 30.9008 19.2624 30.9008L16.332 32.1452C28.7869 50.9331 38.8606 36.1777 39.598 35.0448ZM35.4426 32.5446C34.2443 31.8379 32.9001 31.043 31.579 30.2595C32.904 31.0391 34.2443 31.8341 35.4426 32.5446Z" fill="#064996"/>
<path d="M39.6012 35.0448C39.6012 35.0448 49.2218 17.916 25.8828 15.988L26.2093 19.1488C26.2093 19.1488 36.0218 20.6812 35.0387 27.1333L35.0079 29.1073L33.5601 31.4577L39.6012 35.0448Z" fill="url(#paint41_radial_1009_96475)"/>
</g>
<mask id="mask6_1009_96475" style="mask-type:luminance" maskUnits="userSpaceOnUse" x="21" y="28" width="10" height="7">
<path d="M21.9492 32.3029C21.9492 32.3029 24.3879 34.7186 26.7767 34.8146L27.203 34.8223C27.203 34.8223 29.6994 33.7239 29.7071 33.697C29.7148 33.6701 30.6518 30.6668 30.6595 30.4517C30.6672 30.2405 30.1065 28.9693 29.9682 28.8579C29.8338 28.7465 29.0235 28.3817 28.4858 28.2626C27.9481 28.1436 27.3106 28.0821 27.1339 28.0821C26.9534 28.0821 26.097 28.0744 25.5939 28.0667C25.0907 28.0591 24.676 28.1858 24.1959 28.2549C23.7197 28.3241 22.6712 29.0653 22.6021 29.1843C22.5329 29.3034 21.8954 30.9279 21.8877 30.9625C21.8801 30.9971 21.7188 31.6692 21.7188 31.6692L21.9492 32.3029Z" fill="white"/>
</mask>
<g mask="url(#mask6_1009_96475)">
<path d="M3.31089 35.2831C3.30705 35.2947 5.56145 34.0119 8.43033 32.3759C5.56145 34.0158 3.31474 35.3062 3.32626 35.31C3.32626 35.31 12.3822 50.7682 25.2711 36.7963C26.4463 35.5213 27.5178 34.0503 28.7583 32.2453C28.7583 32.2453 28.7353 31.7998 28.3743 31.6116C28.0132 31.4272 24.7872 30.0331 24.7872 30.0331C24.7872 30.0331 24.3494 29.7144 23.8923 30.2904C23.4353 30.8665 20.2362 34.7032 17.0178 34.8376C17.0178 34.8376 24.2149 33.0902 20.336 25.5781C15.8349 18.4232 10.6732 23.7346 10.6732 23.7346C12.4207 21.0309 17.3557 20.2206 18.0816 20.1207C18.8075 20.0208 18.7537 19.4793 18.7537 19.4793C18.7537 19.4793 19.1954 15.9921 19.2184 15.585C19.2414 15.1779 18.8689 14.9321 18.8689 14.9321C16.6837 15.0858 14.8709 15.2586 13.1772 15.6234C-5.40329 19.6329 3.31089 35.2831 3.31089 35.2831Z" fill="#677403"/>
<path d="M4.12433 34.757C4.12049 34.757 4.12817 34.7685 4.14354 34.7915C4.15506 34.8146 4.16274 34.8261 4.16274 34.8261C4.16274 34.8261 4.16274 34.8261 4.16274 34.8223C4.88476 35.9667 14.7357 50.868 27.471 32.2683L24.5637 30.9932C24.5637 30.9932 19.8245 36.7963 15.3925 35.767C15.3925 35.767 19.7208 32.5525 20.2968 30.782C20.8652 29.0384 19.7899 26.7149 19.4327 26.0774C19.4289 26.0735 19.4289 26.0697 19.425 26.062C19.4212 26.0582 19.4212 26.0543 19.4174 26.0466C19.0487 25.4129 17.5931 23.3083 15.8034 22.9128C13.9868 22.5095 9.01718 24.6026 9.01718 24.6026C10.3844 20.2628 17.789 19.1298 17.789 19.1298L18.1615 15.9729C-4.32485 17.4976 3.50601 33.5549 4.12433 34.757ZM8.35661 32.3874C9.56638 31.6961 10.9182 30.9241 12.2548 30.1598C10.9221 30.9241 9.56638 31.6961 8.35661 32.3874Z" fill="#778602"/>
<mask id="mask7_1009_96475" style="mask-type:luminance" maskUnits="userSpaceOnUse" x="2" y="15" width="26" height="27">
<path d="M4.13136 34.7647C4.12752 34.7647 4.1352 34.7762 4.14672 34.7954C4.15825 34.8184 4.16209 34.8261 4.16209 34.8261C4.16209 34.8261 4.16209 34.8261 4.16209 34.8223C4.8457 35.913 14.7159 50.9141 27.4742 32.276L24.5669 30.9971C24.5669 30.9971 19.8276 36.8001 15.3957 35.7709C15.3957 35.7709 19.7239 32.5563 20.3 30.7859C20.8646 29.0538 19.7969 26.7341 19.4321 26.0735C19.4282 26.0658 19.4244 26.0582 19.4205 26.0543C19.4167 26.0466 19.4129 26.039 19.409 26.0351C19.025 25.3861 17.5809 23.3083 15.8028 22.9128C13.9862 22.5095 9.01653 24.6026 9.01653 24.6026C10.3838 20.2628 17.7883 19.1298 17.7883 19.1298L18.1608 15.9729C-4.36775 17.5014 3.54376 33.6202 4.13136 34.7647Z" fill="white"/>
</mask>
<g mask="url(#mask7_1009_96475)">
<path opacity="0.79" d="M14.6979 36.4698C19.027 36.4698 22.5365 32.9604 22.5365 28.6313C22.5365 24.3022 19.027 20.7927 14.6979 20.7927C10.3688 20.7927 6.85938 24.3022 6.85938 28.6313C6.85938 32.9604 10.3688 36.4698 14.6979 36.4698Z" fill="url(#paint42_radial_1009_96475)"/>
</g>
<path d="M4.12891 34.757C4.12891 34.757 14.2487 51.5978 27.4794 32.2722L24.5683 30.9933C24.5683 30.9933 18.3811 38.7589 13.2579 34.7109L11.5603 33.7085L10.2354 31.289L4.12891 34.757Z" fill="url(#paint43_radial_1009_96475)"/>
<path opacity="0.77" d="M13.4609 35.5135C13.4609 35.5135 17.2708 38.2211 22.2711 34.1002L22.7205 34.972C22.7205 34.9682 17.3552 38.6705 13.4609 35.5135Z" fill="url(#paint44_linear_1009_96475)"/>
</g>
<mask id="mask8_1009_96475" style="mask-type:luminance" maskUnits="userSpaceOnUse" x="6" y="13" width="14" height="11">
<path d="M10.6 23.6885C10.6 23.6885 11.6485 21.3381 17.2403 20.1629C17.2672 20.2128 18.2119 20.4701 18.3886 20.4701C18.5691 20.4701 18.8495 20.954 19.1298 20.0092C19.4102 19.0645 19.4601 18.6804 19.5638 18.1696C19.6675 17.6588 19.8211 15.5389 19.7174 15.0012C19.6137 14.4635 19.4102 13.7991 18.9762 13.7223C18.5422 13.6455 16.4223 13.9028 15.5274 13.9796C14.6326 14.0564 14.2754 13.9796 13.4074 14.26C12.5395 14.5403 10.4464 15.5888 10.3158 15.6387C10.1891 15.6886 8.83335 16.8907 8.83335 16.8907L6.85547 17.7702L9.9471 23.942L10.6 23.6885Z" fill="white"/>
</mask>
<g mask="url(#mask8_1009_96475)">
<path d="M3.31089 35.283C3.30705 35.2945 5.56145 34.0118 8.43033 32.3757C5.56145 34.0156 3.31474 35.3061 3.32626 35.3099C3.32626 35.3099 12.3822 50.7681 25.2711 36.7962C26.4463 35.5211 27.5178 34.0502 28.7583 32.2452C28.7583 32.2452 28.7353 31.7997 28.3743 31.6115C28.0132 31.4271 24.7872 30.033 24.7872 30.033C24.7872 30.033 24.3494 29.7142 23.8923 30.2903C23.4353 30.8664 20.2362 34.7031 17.0178 34.8375C17.0178 34.8375 24.2149 33.0901 20.336 25.578C15.8349 18.4231 10.6732 23.7345 10.6732 23.7345C12.4207 21.0308 17.3557 20.2204 18.0816 20.1206C18.8075 20.0207 18.7537 19.4792 18.7537 19.4792C18.7537 19.4792 19.1954 15.992 19.2184 15.5849C19.2414 15.1778 18.8689 14.932 18.8689 14.932C16.6837 15.0856 14.8709 15.2585 13.1772 15.6233C-5.40329 19.6328 3.31089 35.283 3.31089 35.283Z" fill="#677403"/>
<path d="M4.12433 34.7569C4.12049 34.7569 4.12817 34.7684 4.14354 34.7914C4.15506 34.8145 4.16274 34.826 4.16274 34.826C4.16274 34.826 4.16274 34.826 4.16274 34.8221C4.88476 35.9666 14.7357 50.8679 27.471 32.2682L24.5637 30.9931C24.5637 30.9931 19.8245 36.7962 15.3925 35.7669C15.3925 35.7669 19.7208 32.5524 20.2968 30.7819C20.8652 29.0383 19.7899 26.7148 19.4327 26.0772C19.4289 26.0734 19.4289 26.0696 19.425 26.0619C19.4212 26.058 19.4212 26.0542 19.4174 26.0465C19.0487 25.4128 17.5931 23.3082 15.8034 22.9126C13.9868 22.5094 9.01718 24.6025 9.01718 24.6025C10.3844 20.2627 17.789 19.1297 17.789 19.1297L18.1615 15.9728C-4.32485 17.4975 3.50601 33.5548 4.12433 34.7569ZM8.35661 32.3872C9.56638 31.6959 10.9182 30.924 12.2548 30.1597C10.9221 30.924 9.56638 31.6959 8.35661 32.3872Z" fill="#778602"/>
<mask id="mask9_1009_96475" style="mask-type:luminance" maskUnits="userSpaceOnUse" x="2" y="15" width="26" height="27">
<path d="M4.13136 34.7645C4.12752 34.7645 4.1352 34.7761 4.14672 34.7953C4.15825 34.8183 4.16209 34.826 4.16209 34.826C4.16209 34.826 4.16209 34.826 4.16209 34.8221C4.8457 35.9129 14.7159 50.914 27.4742 32.2759L24.5669 30.997C24.5669 30.997 19.8276 36.8 15.3957 35.7708C15.3957 35.7708 19.7239 32.5562 20.3 30.7857C20.8646 29.0537 19.7969 26.734 19.4321 26.0734C19.4282 26.0657 19.4244 26.058 19.4205 26.0542C19.4167 26.0465 19.4129 26.0388 19.409 26.035C19.025 25.3859 17.5809 23.3082 15.8028 22.9126C13.9862 22.5094 9.01653 24.6025 9.01653 24.6025C10.3838 20.2627 17.7883 19.1297 17.7883 19.1297L18.1608 15.9728C-4.36775 17.5013 3.54376 33.6201 4.13136 34.7645Z" fill="white"/>
</mask>
<g mask="url(#mask9_1009_96475)">
<path opacity="0.79" d="M14.6979 36.4697C19.027 36.4697 22.5365 32.9602 22.5365 28.6311C22.5365 24.302 19.027 20.7926 14.6979 20.7926C10.3688 20.7926 6.85938 24.302 6.85938 28.6311C6.85938 32.9602 10.3688 36.4697 14.6979 36.4697Z" fill="url(#paint45_radial_1009_96475)"/>
</g>
<mask id="mask10_1009_96475" style="mask-type:luminance" maskUnits="userSpaceOnUse" x="2" y="15" width="26" height="27">
<path d="M4.13136 34.7645C4.12752 34.7645 4.1352 34.7761 4.14672 34.7953C4.15825 34.8183 4.16209 34.826 4.16209 34.826C4.16209 34.826 4.16209 34.826 4.16209 34.8221C4.8457 35.9129 14.7159 50.914 27.4742 32.2759L24.5669 30.997C24.5669 30.997 19.8276 36.8 15.3957 35.7708C15.3957 35.7708 19.7239 32.5562 20.3 30.7857C20.8646 29.0537 19.7969 26.734 19.4321 26.0734C19.4282 26.0657 19.4244 26.058 19.4205 26.0542C19.4167 26.0465 19.4129 26.0388 19.409 26.035C19.025 25.3859 17.5809 23.3082 15.8028 22.9126C13.9862 22.5094 9.01653 24.6025 9.01653 24.6025C10.3838 20.2627 17.7883 19.1297 17.7883 19.1297L18.1608 15.9728C-4.36775 17.5013 3.54376 33.6201 4.13136 34.7645Z" fill="white"/>
</mask>
<g mask="url(#mask10_1009_96475)">
<path opacity="0.52" d="M9.614 23.7192C6.03078 23.4311 3.92232 25.3322 4.9055 27.9591C5.88868 30.586 9.59096 32.9518 13.1742 33.2399C16.7574 33.5279 18.8659 31.6268 17.8827 28.9999C16.8995 26.3691 13.1972 24.0072 9.614 23.7192Z" fill="url(#paint46_radial_1009_96475)"/>
</g>
<mask id="mask11_1009_96475" style="mask-type:luminance" maskUnits="userSpaceOnUse" x="2" y="15" width="26" height="27">
<path d="M4.13136 34.7645C4.12752 34.7645 4.1352 34.7761 4.14672 34.7953C4.15825 34.8183 4.16209 34.826 4.16209 34.826C4.16209 34.826 4.16209 34.826 4.16209 34.8221C4.8457 35.9129 14.7159 50.914 27.4742 32.2759L24.5669 30.997C24.5669 30.997 19.8276 36.8 15.3957 35.7708C15.3957 35.7708 19.7239 32.5562 20.3 30.7857C20.8646 29.0537 19.7969 26.734 19.4321 26.0734C19.4282 26.0657 19.4244 26.058 19.4205 26.0542C19.4167 26.0465 19.4129 26.0388 19.409 26.035C19.025 25.3859 17.5809 23.3082 15.8028 22.9126C13.9862 22.5094 9.01653 24.6025 9.01653 24.6025C10.3838 20.2627 17.7883 19.1297 17.7883 19.1297L18.1608 15.9728C-4.36775 17.5013 3.54376 33.6201 4.13136 34.7645Z" fill="white"/>
</mask>
<g mask="url(#mask11_1009_96475)">
<path opacity="0.52" d="M9.36175 33.3359C9.48849 36.9268 11.62 38.8048 14.1163 37.5221C16.6165 36.2432 18.5368 32.2913 18.4062 28.7004C18.2756 25.1095 16.148 23.2314 13.6516 24.5142C11.1514 25.7931 9.23117 29.7412 9.36175 33.3359Z" fill="url(#paint47_radial_1009_96475)"/>
</g>
<path d="M4.16344 34.8299C4.16344 34.8299 -5.20364 17.559 18.1622 15.9767L17.7897 19.1336C17.7897 19.1336 7.86956 20.6737 8.81817 27.0298L8.84122 28.9577L10.2545 31.3273L4.16344 34.8299Z" fill="url(#paint48_linear_1009_96475)"/>
<path opacity="0.77" d="M8.28693 26.4498C8.28693 26.4498 7.89135 21.7912 13.9824 19.5791L13.4601 18.7495C13.4601 18.7495 7.54571 21.4917 8.28693 26.4498Z" fill="url(#paint49_linear_1009_96475)"/>
<path d="M3.95897 29.1728C3.95897 29.1728 2.22688 22.352 9.10529 18.9531L8.77116 18.6727C8.77116 18.6727 1.3282 21.4533 3.01419 29.9639L3.20238 30.298L3.95897 29.1728Z" fill="url(#paint50_linear_1009_96475)"/>
<path opacity="0.56" d="M20.3086 30.7896C20.8732 29.0575 19.8055 26.7378 19.4406 26.0772C19.4368 26.0696 19.433 26.0619 19.4291 26.058C19.4253 26.0504 19.4214 26.0427 19.4176 26.0388C19.0335 25.3898 17.5895 23.3121 15.8113 22.9165C15.3927 22.8243 14.8013 22.8627 14.1445 22.9818L14.2828 23.2352C14.6745 23.1968 15.024 23.2007 15.2967 23.2621C17.0749 23.6577 18.5189 25.7316 18.903 26.3845C18.9068 26.3922 18.9106 26.3999 18.9145 26.4037C18.9183 26.4114 18.9222 26.4191 18.926 26.4229C19.2947 27.0835 20.3585 29.4032 19.794 31.1352C19.6903 31.4502 19.4675 31.815 19.1718 32.1952L19.2601 32.3565C19.7671 31.792 20.1588 31.2428 20.3086 30.7896Z" fill="url(#paint51_linear_1009_96475)"/>
</g>
<path d="M21.9171 34.0502C27.4934 34.0502 32.0139 29.5298 32.0139 23.9535C32.0139 18.3772 27.4934 13.8567 21.9171 13.8567C16.3408 13.8567 11.8203 18.3772 11.8203 23.9535C11.8203 29.5298 16.3408 34.0502 21.9171 34.0502Z" fill="url(#paint52_linear_1009_96475)"/>
<path d="M21.9174 33.574C27.2307 33.574 31.538 29.2667 31.538 23.9534C31.538 18.6402 27.2307 14.3329 21.9174 14.3329C16.6041 14.3329 12.2969 18.6402 12.2969 23.9534C12.2969 29.2667 16.6041 33.574 21.9174 33.574Z" fill="url(#paint53_linear_1009_96475)"/>
<mask id="mask12_1009_96475" style="mask-type:luminance" maskUnits="userSpaceOnUse" x="12" y="14" width="20" height="20">
<path d="M21.9174 33.574C27.2307 33.574 31.538 29.2667 31.538 23.9534C31.538 18.6402 27.2307 14.3329 21.9174 14.3329C16.6041 14.3329 12.2969 18.6402 12.2969 23.9534C12.2969 29.2667 16.6041 33.574 21.9174 33.574Z" fill="white"/>
</mask>
<g mask="url(#mask12_1009_96475)">
<path d="M24.4308 25.9352H12.3984V37.4376H24.4308V25.9352Z" fill="url(#paint54_linear_1009_96475)"/>
<path d="M24.4308 25.9352H12.3984V37.4376H24.4308V25.9352Z" fill="url(#paint55_linear_1009_96475)"/>
</g>
<path d="M20.2418 30.1712C19.9614 30.1712 19.7386 30.1636 19.5697 30.152C19.4813 30.1444 19.3815 30.1328 19.2624 30.1136C18.5788 30.0215 18.1141 29.8909 18.0911 29.8871L17.9336 29.8448L18.1487 27.8516L19.0051 28.0858C19.1242 28.1089 19.2279 28.1281 19.32 28.1396C19.5581 28.1742 19.8039 28.1895 20.0459 28.1895C20.4876 28.1895 20.8908 28.1319 21.2518 28.0167C21.609 27.9015 21.9201 27.7402 22.1774 27.5328C22.4309 27.3254 22.6344 27.0758 22.7765 26.7916C22.9186 26.5074 22.9916 26.1925 22.9916 25.8545C22.9916 25.3514 22.8418 24.9596 22.5307 24.6601C22.2196 24.3567 21.8164 24.2107 21.2941 24.2107C20.9523 24.2107 20.5874 24.2491 20.2149 24.3183C19.8347 24.3912 19.37 24.5141 18.8246 24.687L18.5519 24.7715L19.1434 17.7279H25.4534L25.0386 20.086H21.6628L21.463 22.0677C21.536 22.0562 21.5975 22.0485 21.6474 22.0408C21.7549 22.0293 21.8932 22.0216 22.0583 22.0216C22.6114 22.0216 23.126 22.11 23.5984 22.2866C24.0708 22.4633 24.4779 22.7091 24.8158 23.0202C25.15 23.3313 25.4188 23.7076 25.607 24.1416C25.7952 24.5756 25.8912 25.0595 25.8912 25.578C25.8912 26.2501 25.7491 26.8799 25.4649 27.4406C25.1845 27.9975 24.7851 28.4853 24.2897 28.8885C23.7943 29.2879 23.1951 29.6067 22.5038 29.8294C21.8164 30.0599 21.056 30.1712 20.2418 30.1712Z" fill="#D6783D"/>
<path d="M25.4301 24.2222C25.2496 23.8113 25.0038 23.4618 24.685 23.1661C24.3663 22.8703 23.9822 22.6399 23.5329 22.4748C23.0835 22.3058 22.5919 22.2251 22.0619 22.2251C21.9006 22.2251 21.7701 22.2328 21.6741 22.2443C21.5742 22.2558 21.4359 22.2789 21.2478 22.3135L21.4897 19.9054H24.8847L25.2304 17.9314H19.3236L18.7706 24.5141C19.3236 24.3413 19.796 24.2184 20.1839 24.1415C20.5718 24.0647 20.9443 24.0302 21.3015 24.0302C21.8661 24.0302 22.3231 24.1992 22.6688 24.5333C23.0144 24.8674 23.1872 25.3129 23.1872 25.8659C23.1872 26.2346 23.1104 26.5764 22.953 26.8875C22.7955 27.1986 22.5804 27.4675 22.3039 27.694C22.0274 27.9206 21.6971 28.0935 21.3169 28.2125C20.9367 28.3354 20.5142 28.393 20.0533 28.393C19.7999 28.393 19.5464 28.3738 19.3006 28.3393C19.1969 28.3239 19.0817 28.3047 18.9588 28.2778L18.3213 28.105L18.1484 29.7103C18.1484 29.7103 18.6131 29.8409 19.2929 29.9331C19.4043 29.9523 19.5003 29.9638 19.5848 29.9676C19.7461 29.9792 19.965 29.9868 20.2415 29.9868C21.0365 29.9868 21.7701 29.8755 22.4422 29.6566C23.1104 29.4377 23.6865 29.1342 24.1666 28.7464C24.6466 28.3585 25.023 27.8976 25.2918 27.3599C25.5645 26.8222 25.6989 26.2308 25.6989 25.5856C25.6989 25.0825 25.6106 24.6293 25.4301 24.2222Z" fill="#F18E41"/>
<path opacity="0.43" d="M25.4301 24.2222C25.2496 23.8113 25.0038 23.4618 24.685 23.1661C24.3663 22.8703 23.9822 22.6399 23.5329 22.4748C23.0835 22.3058 22.5919 22.2251 22.0619 22.2251C21.9006 22.2251 21.7701 22.2328 21.6741 22.2443C21.5742 22.2558 21.4359 22.2789 21.2478 22.3135L21.4897 19.9054H24.8847L25.2304 17.9314H19.3236L18.7706 24.5141C19.3236 24.3413 19.796 24.2184 20.1839 24.1415C20.5718 24.0647 20.9443 24.0302 21.3015 24.0302C21.8661 24.0302 22.3231 24.1992 22.6688 24.5333C23.0144 24.8674 23.1872 25.3129 23.1872 25.8659C23.1872 26.2346 23.1104 26.5764 22.953 26.8875C22.7955 27.1986 22.5804 27.4675 22.3039 27.694C22.0274 27.9206 21.6971 28.0935 21.3169 28.2125C20.9367 28.3354 20.5142 28.393 20.0533 28.393C19.7999 28.393 19.5464 28.3738 19.3006 28.3393C19.1969 28.3239 19.0817 28.3047 18.9588 28.2778L18.3213 28.105L18.1484 29.7103C18.1484 29.7103 18.6131 29.8409 19.2929 29.9331C19.4043 29.9523 19.5003 29.9638 19.5848 29.9676C19.7461 29.9792 19.965 29.9868 20.2415 29.9868C21.0365 29.9868 21.7701 29.8755 22.4422 29.6566C23.1104 29.4377 23.6865 29.1342 24.1666 28.7464C24.6466 28.3585 25.023 27.8976 25.2918 27.3599C25.5645 26.8222 25.6989 26.2308 25.6989 25.5856C25.6989 25.0825 25.6106 24.6293 25.4301 24.2222Z" fill="url(#paint56_linear_1009_96475)"/>
</g>
<path d="M146.976 31.296C146.245 31.3152 145.515 31.2486 144.8 31.0976L143.969 28.2617C144.844 28.517 145.75 28.652 146.661 28.663C149.698 28.663 151.846 26.9441 151.846 24.4807C151.846 22.6453 150.585 21.4444 148.723 21.4444C147.296 21.4908 145.885 21.7614 144.542 22.2465L145.458 11.3616H155.226L154.653 14.6271H149.039L148.638 18.6089C149.079 18.5092 149.531 18.4613 149.984 18.4661C153.536 18.4661 155.999 20.7578 155.999 24.0219C155.999 28.2612 152.247 31.2975 146.976 31.2975L146.976 31.296Z" fill="#F1843D"/>
<path d="M61.0617 25.7422L60.5775 18.8342C60.522 18.0147 60.4842 17.3629 60.4842 16.6743C60.3354 17.4184 60.2238 17.8847 60.0001 18.6665L57.9519 25.7422H55.736L53.8922 18.9463C53.7245 18.3133 53.5013 17.4006 53.3708 16.656C53.3708 17.4194 53.3336 18.1828 53.2776 18.984L52.8311 25.7432H50.2422L51.4526 12.8016H54.7861L56.4806 19.2816C56.6647 19.9563 56.8137 20.6402 56.9271 21.3303C57.0387 20.6596 57.1875 19.991 57.3928 19.226L59.1434 12.8016H62.458L63.6124 25.7432H61.0612L61.0617 25.7422Z" fill="#161D2F"/>
<path d="M67.8953 21.7574V21.8318C67.8953 23.3031 68.6215 24.1409 69.9063 24.1409C70.8012 24.1255 71.6605 23.7883 72.3271 23.191L73.2954 24.6791C72.2958 25.5384 71.0196 26.0078 69.7015 26.0011C66.9642 26.0011 65.1953 24.0665 65.1953 21.0663C65.1953 19.3535 65.549 18.2175 66.3858 17.2859C66.7564 16.8598 67.2185 16.5229 67.7376 16.3004C68.2567 16.078 68.8193 15.9757 69.3835 16.0011C70.398 15.9649 71.3867 16.3256 72.1395 17.0066C73.0146 17.8995 73.4055 19.1853 73.4055 21.1775V21.7549H67.8938L67.8953 21.7574ZM70.8186 19.8227C70.8675 19.3257 70.7637 18.8256 70.5209 18.3891C70.4048 18.2059 70.2415 18.0574 70.0482 17.9591C69.8549 17.8608 69.6386 17.8164 69.4222 17.8306C68.4722 17.8306 67.934 18.5747 67.934 19.8971V19.9344H70.8201V19.8227H70.8186Z" fill="#161D2F"/>
<path d="M77.9137 25.9658C76.6478 25.9658 75.6418 25.4073 75.3442 24.5689C75.184 24.0961 75.1269 23.5944 75.1765 23.0976V17.9213H74.2266V16.2084H75.1765C75.1562 15.4562 75.1874 14.7034 75.2698 13.9554L77.7996 13.3224C77.7012 14.2813 77.6515 15.2445 77.6508 16.2084H79.8855L79.2526 17.9213H77.6514V22.7072C77.6514 23.9176 77.8751 24.2341 78.7313 24.2341C79.0361 24.2143 79.3367 24.1516 79.6241 24.0481L79.9406 25.5363C79.3004 25.8131 78.6112 25.9592 77.9137 25.9658Z" fill="#161D2F"/>
<path d="M87.7994 26.2268C87.2346 26.0056 86.7622 25.5984 86.4601 25.0725C86.2818 25.2557 86.0887 25.4238 85.8826 25.575C85.3121 25.942 84.6422 26.124 83.9644 26.0964C81.8413 26.0964 80.6875 25.0164 80.6875 23.117C80.6875 20.8848 82.2327 19.8396 85.268 19.8396C85.454 19.8396 85.6217 19.8396 85.8266 19.8585V19.4676C85.8266 18.4065 85.6217 18.0523 84.7095 18.0523C83.7063 18.1407 82.7496 18.5156 81.9534 19.1322L80.8923 17.3464C81.3816 17.0377 81.8989 16.776 82.4375 16.5646C83.258 16.1989 84.146 16.0087 85.0443 16.0061C86.6456 16.0061 87.7443 16.6014 88.1168 17.6634C88.2847 18.2178 88.3418 18.7999 88.2845 19.3763L88.229 22.5793C88.2101 23.621 88.2845 24.0675 89.1219 24.7019L87.7994 26.2288V26.2268ZM85.6763 21.5713C83.9445 21.5713 83.3488 21.8878 83.3488 23.0238C83.3327 23.1791 83.3489 23.3361 83.3964 23.4849C83.444 23.6337 83.5217 23.771 83.625 23.8882C83.7282 24.0054 83.8546 24.0999 83.9961 24.1659C84.1377 24.2318 84.2914 24.2677 84.4475 24.2714C84.6982 24.2592 84.9435 24.195 85.168 24.0827C85.3924 23.9705 85.591 23.8128 85.7511 23.6195L85.7884 21.5713H85.6763Z" fill="#161D2F"/>
<path d="M98.658 14.9605H95.5671V25.7422H92.9231V14.9605H89.7578V12.8007H99.0871L98.6589 14.9605H98.658Z" fill="#161D2F"/>
<path d="M104.02 18.3871C103.799 18.2606 103.548 18.1963 103.294 18.2011C102.995 18.2114 102.703 18.2887 102.439 18.4273C102.175 18.5659 101.945 18.7622 101.767 19.0017V25.7426H99.2717V19.3733C99.3073 18.4293 99.1877 17.4858 98.918 16.5805L101.15 15.9852C101.385 16.4016 101.519 16.867 101.542 17.3444C101.783 16.9599 102.111 16.6368 102.499 16.4009C102.886 16.165 103.324 16.0226 103.776 15.9852C104.099 15.9743 104.419 16.0448 104.707 16.1901L104.019 18.3876L104.02 18.3871Z" fill="#161D2F"/>
<path d="M112.01 26.2268C111.446 26.0057 110.973 25.5984 110.671 25.0725C110.493 25.2557 110.3 25.4238 110.094 25.575C109.523 25.942 108.853 26.124 108.175 26.0964C106.052 26.0964 104.898 25.0164 104.898 23.117C104.898 20.8848 106.444 19.8396 109.479 19.8396C109.665 19.8396 109.833 19.8396 110.038 19.8585V19.4676C110.038 18.4065 109.833 18.0523 108.92 18.0523C107.917 18.1408 106.961 18.5156 106.164 19.1322L105.103 17.3464C105.592 17.0377 106.11 16.776 106.649 16.5646C107.469 16.1989 108.357 16.0087 109.255 16.0061C110.857 16.0061 111.955 16.6014 112.327 17.6634C112.495 18.2178 112.552 18.7999 112.495 19.3763L112.44 22.5793C112.421 23.621 112.495 24.0675 113.332 24.7019L112.01 26.2288L112.01 26.2268ZM109.887 21.5713C108.156 21.5713 107.559 21.8878 107.559 23.0238C107.543 23.1791 107.559 23.3361 107.607 23.4849C107.654 23.6337 107.732 23.771 107.836 23.8882C107.939 24.0054 108.065 24.0999 108.207 24.1659C108.348 24.2318 108.502 24.2677 108.658 24.2714C108.909 24.2592 109.154 24.1949 109.379 24.0827C109.603 23.9705 109.802 23.8127 109.962 23.6195L109.999 21.5713H109.887Z" fill="#161D2F"/>
<path d="M120.724 25.7422C120.643 25.5658 120.592 25.3769 120.575 25.1836C119.97 25.7183 119.185 26.0044 118.377 25.9843C115.957 25.9843 114.43 24.1037 114.43 21.1428C114.43 18.1818 116.087 16.1152 118.508 16.1152C119.119 16.0877 119.72 16.2793 120.202 16.6555C120.149 16.1858 120.124 15.7134 120.128 15.2407V11.9628L122.605 12.3542V22.2604C122.605 24.6067 122.791 25.3701 122.958 25.7427H120.724V25.7422ZM120.165 18.722C119.804 18.3561 119.319 18.1372 118.806 18.1074C117.689 18.1074 117.205 19.0385 117.205 21.1616C117.205 23.2847 117.633 23.88 118.936 23.88C119.172 23.8638 119.401 23.8012 119.612 23.6957C119.823 23.5902 120.012 23.4439 120.166 23.2654V18.722H120.165Z" fill="#161D2F"/>
<path d="M127.353 21.7574V21.8318C127.353 23.3031 128.08 24.1409 129.364 24.1409C130.259 24.1254 131.118 23.7881 131.785 23.191L132.753 24.6791C131.753 25.5384 130.477 26.0078 129.159 26.0011C126.422 26.0011 124.652 24.0665 124.652 21.0663C124.652 19.3535 125.006 18.2175 125.843 17.2859C126.213 16.8598 126.676 16.5229 127.195 16.3004C127.714 16.078 128.276 15.9757 128.841 16.0011C129.855 15.965 130.844 16.3257 131.597 17.0066C132.472 17.8995 132.863 19.1853 132.863 21.1775V21.7549H127.35L127.353 21.7574ZM130.277 19.8227C130.325 19.3257 130.222 18.8256 129.979 18.3891C129.863 18.2059 129.7 18.0574 129.506 17.9591C129.313 17.8608 129.097 17.8164 128.88 17.8306C127.93 17.8306 127.392 18.5747 127.392 19.8971V19.9344H130.278V19.8227H130.277Z" fill="#161D2F"/>
<path d="M139.379 18.3871C139.158 18.2605 138.908 18.1962 138.653 18.2011C138.355 18.2114 138.063 18.2888 137.798 18.4274C137.534 18.566 137.304 18.7623 137.126 19.0017V25.7426H134.631V19.3733C134.667 18.4293 134.547 17.4858 134.277 16.5805L136.51 15.9852C136.744 16.4016 136.878 16.867 136.901 17.3444C137.142 16.9602 137.469 16.6373 137.857 16.4014C138.244 16.1655 138.681 16.023 139.133 15.9852C139.456 15.9744 139.776 16.0448 140.064 16.1901L139.375 18.3876L139.379 18.3871Z" fill="#161D2F"/>
<defs>
<radialGradient id="paint0_radial_1009_96475" cx="0" cy="0" r="1" gradientUnits="userSpaceOnUse" gradientTransform="translate(19.9522 28.745) scale(9.7049 9.70489)">
<stop offset="0.00193331" stop-color="#A0AA63"/>
<stop offset="0.6587" stop-color="#A2AC57" stop-opacity="0.3242"/>
<stop offset="0.9737" stop-color="#A3AD50" stop-opacity="0"/>
</radialGradient>
<radialGradient id="paint1_radial_1009_96475" cx="0" cy="0" r="1" gradientUnits="userSpaceOnUse" gradientTransform="translate(11.3827 28.5059) rotate(23.34) scale(6.28029 3.73593)">
<stop offset="0.00270339" stop-color="white"/>
<stop offset="0.0822319" stop-color="#F9F9F3" stop-opacity="0.9123"/>
<stop offset="0.2247" stop-color="#E8EBD4" stop-opacity="0.7552"/>
<stop offset="0.4139" stop-color="#CDD3A2" stop-opacity="0.5466"/>
<stop offset="0.6425" stop-color="#A8B15C" stop-opacity="0.2945"/>
<stop offset="0.9022" stop-color="#788705" stop-opacity="0.01"/>
<stop offset="0.9096" stop-color="#778602" stop-opacity="0"/>
</radialGradient>
<radialGradient id="paint2_radial_1009_96475" cx="0" cy="0" r="1" gradientUnits="userSpaceOnUse" gradientTransform="translate(13.9096 31.0257) rotate(-73.2794) scale(6.27996 3.73564)">
<stop offset="0.00270339" stop-color="white"/>
<stop offset="0.0822319" stop-color="#F9F9F3" stop-opacity="0.9123"/>
<stop offset="0.2247" stop-color="#E8EBD4" stop-opacity="0.7552"/>
<stop offset="0.4139" stop-color="#CDD3A2" stop-opacity="0.5466"/>
<stop offset="0.6425" stop-color="#A8B15C" stop-opacity="0.2945"/>
<stop offset="0.9022" stop-color="#788705" stop-opacity="0.01"/>
<stop offset="0.9096" stop-color="#778602" stop-opacity="0"/>
</radialGradient>
<radialGradient id="paint3_radial_1009_96475" cx="0" cy="0" r="1" gradientUnits="userSpaceOnUse" gradientTransform="translate(4.83139 34.3989) rotate(-119.736) scale(19.1578)">
<stop offset="0.00154812" stop-color="#A2AD0D"/>
<stop offset="0.28" stop-color="#9EA90F"/>
<stop offset="0.9853" stop-color="#768701"/>
</radialGradient>
<linearGradient id="paint4_linear_1009_96475" x1="6.51365" y1="38.6203" x2="16.8039" y2="39.7963" gradientUnits="userSpaceOnUse">
<stop offset="0.4357" stop-color="#D3D98E"/>
<stop offset="0.543" stop-color="#D0D78A" stop-opacity="0.8098"/>
<stop offset="0.6608" stop-color="#C8CF7C" stop-opacity="0.6009"/>
<stop offset="0.7836" stop-color="#BAC366" stop-opacity="0.3831"/>
<stop offset="0.909" stop-color="#A7B248" stop-opacity="0.1608"/>
<stop offset="0.9996" stop-color="#96A32D" stop-opacity="0"/>
</linearGradient>
<radialGradient id="paint5_radial_1009_96475" cx="0" cy="0" r="1" gradientUnits="userSpaceOnUse" gradientTransform="translate(12.624 30.4041) rotate(116.117) scale(8.37864 8.37864)">
<stop offset="0.0921381" stop-color="#E1E824"/>
<stop offset="0.4151" stop-color="#B0BB14"/>
<stop offset="0.7248" stop-color="#879507"/>
<stop offset="0.8839" stop-color="#778602"/>
</radialGradient>
<linearGradient id="paint6_linear_1009_96475" x1="4.77087" y1="31.4397" x2="13.0391" y2="16.5474" gradientUnits="userSpaceOnUse">
<stop offset="0.00193292" stop-color="#D6DE1F"/>
<stop offset="0.2796" stop-color="#E3E922"/>
<stop offset="0.9853" stop-color="#9EA90F"/>
</linearGradient>
<radialGradient id="paint7_radial_1009_96475" cx="0" cy="0" r="1" gradientUnits="userSpaceOnUse" gradientTransform="translate(13.7315 28.6134) rotate(116.117) scale(10.6692 10.6692)">
<stop offset="0.0954407" stop-color="#DFE523"/>
<stop offset="0.5048" stop-color="#A4AE10"/>
<stop offset="0.8683" stop-color="#738100"/>
</radialGradient>
<radialGradient id="paint8_radial_1009_96475" cx="0" cy="0" r="1" gradientUnits="userSpaceOnUse" gradientTransform="translate(4.83403 35.1593) rotate(-119.736) scale(2.06478)">
<stop stop-color="#8AF750"/>
<stop offset="1" stop-color="#8AF750" stop-opacity="0"/>
</radialGradient>
<linearGradient id="paint9_linear_1009_96475" x1="10.1889" y1="22.7546" x2="13.006" y2="19.1501" gradientUnits="userSpaceOnUse">
<stop offset="0.00166804" stop-color="#EFF2CF"/>
<stop offset="0.9992" stop-color="#B8C21A" stop-opacity="0"/>
</linearGradient>
<linearGradient id="paint10_linear_1009_96475" x1="4.89415" y1="28.6652" x2="6.71057" y2="18.4613" gradientUnits="userSpaceOnUse">
<stop offset="0.000535905" stop-color="#F0F397"/>
<stop offset="1" stop-color="#F5F882" stop-opacity="0"/>
</linearGradient>
<radialGradient id="paint11_radial_1009_96475" cx="0" cy="0" r="1" gradientUnits="userSpaceOnUse" gradientTransform="translate(8.56833 32.1589) rotate(-15.5039) scale(7.18754 7.18754)">
<stop offset="0.0527877" stop-color="#778602"/>
<stop offset="0.9985" stop-color="#C9D11A"/>
</radialGradient>
<linearGradient id="paint12_linear_1009_96475" x1="14.1276" y1="34.9949" x2="21.2452" y2="35.5768" gradientUnits="userSpaceOnUse">
<stop stop-color="#FEFEFD"/>
<stop offset="0.9918" stop-color="#899605" stop-opacity="0"/>
</linearGradient>
<linearGradient id="paint13_linear_1009_96475" x1="16.9471" y1="24.5477" x2="19.2465" y2="33.7256" gradientUnits="userSpaceOnUse">
<stop offset="0.00154052" stop-color="#778602"/>
<stop offset="0.0457036" stop-color="#778602"/>
<stop offset="0.4814" stop-color="#778602"/>
<stop offset="0.9789" stop-color="#778602" stop-opacity="0"/>
</linearGradient>
<linearGradient id="paint14_linear_1009_96475" x1="2.88384" y1="30.9611" x2="5.76844" y2="33.9725" gradientUnits="userSpaceOnUse">
<stop offset="0.00711697" stop-color="white"/>
<stop offset="0.9981" stop-color="white" stop-opacity="0"/>
</linearGradient>
<radialGradient id="paint15_radial_1009_96475" cx="0" cy="0" r="1" gradientUnits="userSpaceOnUse" gradientTransform="translate(27.4963 23.3722) rotate(-3.55557) scale(10.4198)">
<stop offset="0.00154837" stop-color="#ADE3F5"/>
<stop offset="0.1198" stop-color="#A1D8EE" stop-opacity="0.8783"/>
<stop offset="0.3317" stop-color="#82BCDD" stop-opacity="0.6604"/>
<stop offset="0.6126" stop-color="#508DC0" stop-opacity="0.3715"/>
<stop offset="0.9486" stop-color="#0B4E99" stop-opacity="0.0257616"/>
<stop offset="0.9737" stop-color="#064996" stop-opacity="0"/>
</radialGradient>
<radialGradient id="paint16_radial_1009_96475" cx="0" cy="0" r="1" gradientUnits="userSpaceOnUse" gradientTransform="translate(38.9351 34.6103) rotate(120.591) scale(19.1578 19.1578)">
<stop offset="0.00193292" stop-color="#3889C5"/>
<stop offset="0.28" stop-color="#378AC5"/>
<stop offset="0.9853" stop-color="#74D4FB"/>
</radialGradient>
<linearGradient id="paint17_linear_1009_96475" x1="41.7724" y1="31.0641" x2="37.7" y2="21.5408" gradientUnits="userSpaceOnUse">
<stop offset="0.4357" stop-color="#63A8DB"/>
<stop offset="0.6342" stop-color="#5FA7DA" stop-opacity="0.648"/>
<stop offset="0.8518" stop-color="#51A3D6" stop-opacity="0.2622"/>
<stop offset="0.9996" stop-color="#449FD2" stop-opacity="0"/>
</linearGradient>
<radialGradient id="paint18_radial_1009_96475" cx="0" cy="0" r="1" gradientUnits="userSpaceOnUse" gradientTransform="translate(31.6075 29.8221) rotate(-3.55557) scale(8.37885)">
<stop offset="0.0921381" stop-color="#53ABDE"/>
<stop offset="0.985" stop-color="#064996"/>
</radialGradient>
<linearGradient id="paint19_linear_1009_96475" x1="36.3942" y1="36.133" x2="19.3612" y2="36.3212" gradientUnits="userSpaceOnUse">
<stop offset="0.00193292" stop-color="#3889C5"/>
<stop offset="0.28" stop-color="#378AC5"/>
<stop offset="0.9853" stop-color="#74D4FB"/>
</linearGradient>
<radialGradient id="paint20_radial_1009_96475" cx="0" cy="0" r="1" gradientUnits="userSpaceOnUse" gradientTransform="translate(29.5045 29.748) rotate(-3.55557) scale(10.6694 10.6694)">
<stop offset="0.0903576" stop-color="#4094CD"/>
<stop offset="0.9853" stop-color="#064996"/>
</radialGradient>
<radialGradient id="paint21_radial_1009_96475" cx="0" cy="0" r="1" gradientUnits="userSpaceOnUse" gradientTransform="translate(39.5951 34.2328) rotate(120.591) scale(2.06478)">
<stop stop-color="#8AF750"/>
<stop offset="1" stop-color="#8AF750" stop-opacity="0"/>
</radialGradient>
<linearGradient id="paint22_linear_1009_96475" x1="29.659" y1="35.0185" x2="22.5335" y2="35.4941" gradientUnits="userSpaceOnUse">
<stop offset="0.00120314" stop-color="#FEFEFD"/>
<stop offset="0.9996" stop-color="#72D2F9" stop-opacity="0"/>
</linearGradient>
<linearGradient id="paint23_linear_1009_96475" x1="33.9262" y1="37.4019" x2="24.1609" y2="40.875" gradientUnits="userSpaceOnUse">
<stop offset="0.00184365" stop-color="#64A8DB"/>
<stop offset="1" stop-color="#29A7D5" stop-opacity="0"/>
</linearGradient>
<radialGradient id="paint24_radial_1009_96475" cx="0" cy="0" r="1" gradientUnits="userSpaceOnUse" gradientTransform="translate(37.4167 32.6857) rotate(-3.55557) scale(4.4551)">
<stop offset="0.0527875" stop-color="#8EDCFC"/>
<stop offset="0.9985" stop-color="#064996"/>
</radialGradient>
<linearGradient id="paint25_linear_1009_96475" x1="34.8522" y1="26.2406" x2="31.8343" y2="19.7683" gradientUnits="userSpaceOnUse">
<stop stop-color="#FEFEFD"/>
<stop offset="0.9914" stop-color="#74D4FB" stop-opacity="0"/>
</linearGradient>
<linearGradient id="paint26_linear_1009_96475" x1="34.8864" y1="28.9492" x2="38.1565" y2="34.3246" gradientUnits="userSpaceOnUse">
<stop offset="0.00711716" stop-color="#8EDCFC"/>
<stop offset="0.9989" stop-color="#81C9EE" stop-opacity="0"/>
</linearGradient>
<linearGradient id="paint27_linear_1009_96475" x1="24.3778" y1="28.9645" x2="31.2141" y2="22.4231" gradientUnits="userSpaceOnUse">
<stop offset="0.00154052" stop-color="#2465A9" stop-opacity="0"/>
<stop offset="0.04238" stop-color="#2C79B5" stop-opacity="0.0851102"/>
<stop offset="0.1163" stop-color="#3997C8" stop-opacity="0.2391"/>
<stop offset="0.1942" stop-color="#43AFD6" stop-opacity="0.4014"/>
<stop offset="0.2768" stop-color="#4AC0E0" stop-opacity="0.5737"/>
<stop offset="0.3675" stop-color="#4ECAE6" stop-opacity="0.7626"/>
<stop offset="0.4814" stop-color="#4FCDE8"/>
<stop offset="0.7191" stop-color="#54C7E8" stop-opacity="0.5221"/>
<stop offset="0.9789" stop-color="#5EB9E8" stop-opacity="0"/>
</linearGradient>
<linearGradient id="paint28_linear_1009_96475" x1="29.7142" y1="19.8578" x2="23.8138" y2="15.1835" gradientUnits="userSpaceOnUse">
<stop offset="0.000778415" stop-color="#85F149"/>
<stop offset="0.9904" stop-color="#85F149" stop-opacity="0"/>
</linearGradient>
<radialGradient id="paint29_radial_1009_96475" cx="0" cy="0" r="1" gradientUnits="userSpaceOnUse" gradientTransform="translate(22.0144 4.94377) scale(19.1582 19.1582)">
<stop offset="0.00154817" stop-color="#8FFC53"/>
<stop offset="0.2796" stop-color="#8DFA52"/>
<stop offset="0.9853" stop-color="#389A00"/>
</radialGradient>
<linearGradient id="paint30_linear_1009_96475" x1="16.306" y1="6.56387" x2="9.51168" y2="14.993" gradientUnits="userSpaceOnUse">
<stop stop-color="#C3FBA5"/>
<stop offset="1" stop-color="#66CF2D" stop-opacity="0"/>
</linearGradient>
<radialGradient id="paint31_radial_1009_96475" cx="0" cy="0" r="1" gradientUnits="userSpaceOnUse" gradientTransform="translate(21.4139 15.2755) scale(7.33462 7.33461)">
<stop offset="0.0917534" stop-color="#84F04A"/>
<stop offset="0.9853" stop-color="#389A00"/>
</radialGradient>
<radialGradient id="paint32_radial_1009_96475" cx="0" cy="0" r="1" gradientUnits="userSpaceOnUse" gradientTransform="translate(22.5641 15.2671) rotate(180) scale(7.33461)">
<stop offset="0.0917534" stop-color="#84F04A"/>
<stop offset="0.9853" stop-color="#389A00"/>
</radialGradient>
<radialGradient id="paint33_radial_1009_96475" cx="0" cy="0" r="1" gradientUnits="userSpaceOnUse" gradientTransform="translate(21.352 4.56755) scale(2.06482)">
<stop stop-color="#8AF750"/>
<stop offset="1" stop-color="#8AF750" stop-opacity="0"/>
</radialGradient>
<linearGradient id="paint34_linear_1009_96475" x1="27.0861" y1="12.7211" x2="31.1218" y2="18.613" gradientUnits="userSpaceOnUse">
<stop stop-color="#FEFEFD"/>
<stop offset="1" stop-color="#389A00"/>
</linearGradient>
<linearGradient id="paint35_linear_1009_96475" x1="27.7339" y1="12.8213" x2="26.3773" y2="16.9424" gradientUnits="userSpaceOnUse">
<stop stop-color="#9CD17D"/>
<stop offset="1" stop-color="#62CA2A" stop-opacity="0"/>
</linearGradient>
<linearGradient id="paint36_linear_1009_96475" x1="26.3871" y1="10.9418" x2="33.7896" y2="10.9418" gradientUnits="userSpaceOnUse">
<stop stop-color="#9CD17D"/>
<stop offset="1" stop-color="#389A00"/>
</linearGradient>
<radialGradient id="paint37_radial_1009_96475" cx="0" cy="0" r="1" gradientUnits="userSpaceOnUse" gradientTransform="translate(21.4542 4.24954) scale(4.89582)">
<stop stop-color="#8AF750"/>
<stop offset="1" stop-color="#389A00"/>
</radialGradient>
<linearGradient id="paint38_linear_1009_96475" x1="22.3843" y1="1.51981" x2="20.06" y2="6.75607" gradientUnits="userSpaceOnUse">
<stop stop-color="#9CD17D"/>
<stop offset="0.9996" stop-color="#84F04A" stop-opacity="0"/>
</linearGradient>
<linearGradient id="paint39_linear_1009_96475" x1="16.8803" y1="12.7211" x2="12.8445" y2="18.613" gradientUnits="userSpaceOnUse">
<stop stop-color="#FEFEFD"/>
<stop offset="0.9913" stop-color="#47AA0D" stop-opacity="0"/>
</linearGradient>
<radialGradient id="paint40_radial_1009_96475" cx="0" cy="0" r="1" gradientUnits="userSpaceOnUse" gradientTransform="translate(22.2986 5.22015) scale(3.02167)">
<stop stop-color="#54E320" stop-opacity="0.77"/>
<stop offset="1" stop-color="#62CA2A" stop-opacity="0"/>
</radialGradient>
<radialGradient id="paint41_radial_1009_96475" cx="0" cy="0" r="1" gradientUnits="userSpaceOnUse" gradientTransform="translate(38.939 34.6101) rotate(120.591) scale(19.1578)">
<stop offset="0.00193292" stop-color="#3889C5"/>
<stop offset="0.28" stop-color="#378AC5"/>
<stop offset="0.9853" stop-color="#74D4FB"/>
</radialGradient>
<radialGradient id="paint42_radial_1009_96475" cx="0" cy="0" r="1" gradientUnits="userSpaceOnUse" gradientTransform="translate(19.9522 28.7451) scale(9.7049 9.70489)">
<stop offset="0.00193331" stop-color="#A0AA63"/>
<stop offset="0.6587" stop-color="#A2AC57" stop-opacity="0.3242"/>
<stop offset="0.9737" stop-color="#A3AD50" stop-opacity="0"/>
</radialGradient>
<radialGradient id="paint43_radial_1009_96475" cx="0" cy="0" r="1" gradientUnits="userSpaceOnUse" gradientTransform="translate(4.83139 34.399) rotate(-119.736) scale(19.1578)">
<stop offset="0.00154812" stop-color="#A2AD0D"/>
<stop offset="0.28" stop-color="#9EA90F"/>
<stop offset="0.9853" stop-color="#768701"/>
</radialGradient>
<linearGradient id="paint44_linear_1009_96475" x1="14.1276" y1="34.995" x2="21.2452" y2="35.5769" gradientUnits="userSpaceOnUse">
<stop stop-color="#FEFEFD"/>
<stop offset="0.9918" stop-color="#899605" stop-opacity="0"/>
</linearGradient>
<radialGradient id="paint45_radial_1009_96475" cx="0" cy="0" r="1" gradientUnits="userSpaceOnUse" gradientTransform="translate(19.9522 28.745) scale(9.7049 9.70489)">
<stop offset="0.00193331" stop-color="#A0AA63"/>
<stop offset="0.6587" stop-color="#A2AC57" stop-opacity="0.3242"/>
<stop offset="0.9737" stop-color="#A3AD50" stop-opacity="0"/>
</radialGradient>
<radialGradient id="paint46_radial_1009_96475" cx="0" cy="0" r="1" gradientUnits="userSpaceOnUse" gradientTransform="translate(11.3827 28.5059) rotate(23.34) scale(6.28029 3.73593)">
<stop offset="0.00270339" stop-color="white"/>
<stop offset="0.0822319" stop-color="#F9F9F3" stop-opacity="0.9123"/>
<stop offset="0.2247" stop-color="#E8EBD4" stop-opacity="0.7552"/>
<stop offset="0.4139" stop-color="#CDD3A2" stop-opacity="0.5466"/>
<stop offset="0.6425" stop-color="#A8B15C" stop-opacity="0.2945"/>
<stop offset="0.9022" stop-color="#788705" stop-opacity="0.01"/>
<stop offset="0.9096" stop-color="#778602" stop-opacity="0"/>
</radialGradient>
<radialGradient id="paint47_radial_1009_96475" cx="0" cy="0" r="1" gradientUnits="userSpaceOnUse" gradientTransform="translate(13.9096 31.0257) rotate(-73.2794) scale(6.27996 3.73564)">
<stop offset="0.00270339" stop-color="white"/>
<stop offset="0.0822319" stop-color="#F9F9F3" stop-opacity="0.9123"/>
<stop offset="0.2247" stop-color="#E8EBD4" stop-opacity="0.7552"/>
<stop offset="0.4139" stop-color="#CDD3A2" stop-opacity="0.5466"/>
<stop offset="0.6425" stop-color="#A8B15C" stop-opacity="0.2945"/>
<stop offset="0.9022" stop-color="#788705" stop-opacity="0.01"/>
<stop offset="0.9096" stop-color="#778602" stop-opacity="0"/>
</radialGradient>
<linearGradient id="paint48_linear_1009_96475" x1="4.77087" y1="31.4397" x2="13.0391" y2="16.5474" gradientUnits="userSpaceOnUse">
<stop offset="0.00193292" stop-color="#D6DE1F"/>
<stop offset="0.2796" stop-color="#E3E922"/>
<stop offset="0.9853" stop-color="#9EA90F"/>
</linearGradient>
<linearGradient id="paint49_linear_1009_96475" x1="10.1889" y1="22.7546" x2="13.006" y2="19.1501" gradientUnits="userSpaceOnUse">
<stop offset="0.00166804" stop-color="#EFF2CF"/>
<stop offset="0.9992" stop-color="#B8C21A" stop-opacity="0"/>
</linearGradient>
<linearGradient id="paint50_linear_1009_96475" x1="4.89415" y1="28.6652" x2="6.71057" y2="18.4613" gradientUnits="userSpaceOnUse">
<stop offset="0.000535905" stop-color="#F0F397"/>
<stop offset="1" stop-color="#F5F882" stop-opacity="0"/>
</linearGradient>
<linearGradient id="paint51_linear_1009_96475" x1="16.9471" y1="24.5477" x2="19.2465" y2="33.7256" gradientUnits="userSpaceOnUse">
<stop offset="0.00154052" stop-color="#778602"/>
<stop offset="0.0457036" stop-color="#778602"/>
<stop offset="0.4814" stop-color="#778602"/>
<stop offset="0.9789" stop-color="#778602" stop-opacity="0"/>
</linearGradient>
<linearGradient id="paint52_linear_1009_96475" x1="26.8528" y1="16.1074" x2="16.8172" y2="32.0578" gradientUnits="userSpaceOnUse">
<stop offset="0.00115604" stop-color="#36562D"/>
<stop offset="0.5345" stop-color="#064179"/>
<stop offset="0.5724" stop-color="#194768"/>
<stop offset="0.6444" stop-color="#37504D"/>
<stop offset="0.7202" stop-color="#4F5738"/>
<stop offset="0.8008" stop-color="#605C2A"/>
<stop offset="0.8891" stop-color="#6A5F21"/>
<stop offset="1" stop-color="#6D601E"/>
</linearGradient>
<linearGradient id="paint53_linear_1009_96475" x1="19.6077" y1="20.9086" x2="27.0949" y2="30.7758" gradientUnits="userSpaceOnUse">
<stop offset="0.00115604" stop-color="white"/>
<stop offset="0.174" stop-color="#F7F7F9"/>
<stop offset="0.5306" stop-color="#EEEDF1"/>
<stop offset="0.9793" stop-color="#EBEAEF"/>
</linearGradient>
<linearGradient id="paint54_linear_1009_96475" x1="12.3989" y1="31.6874" x2="24.4317" y2="31.6874" gradientUnits="userSpaceOnUse">
<stop offset="0.00115604" stop-color="#DCDBE0"/>
<stop offset="0.9798" stop-color="#DCDBE0" stop-opacity="0"/>
</linearGradient>
<linearGradient id="paint55_linear_1009_96475" x1="12.3989" y1="31.6874" x2="24.4317" y2="31.6874" gradientUnits="userSpaceOnUse">
<stop offset="0.00115604" stop-color="#DCDBE0"/>
<stop offset="0.9798" stop-color="#DCDBE0" stop-opacity="0"/>
</linearGradient>
<linearGradient id="paint56_linear_1009_96475" x1="21.924" y1="17.5921" x2="21.924" y2="31.2701" gradientUnits="userSpaceOnUse">
<stop offset="0.00115624" stop-color="white"/>
<stop offset="0.0553126" stop-color="#FDF0E6" stop-opacity="0.9445"/>
<stop offset="0.1646" stop-color="#FAD6BB" stop-opacity="0.8326"/>
<stop offset="0.2791" stop-color="#F7C095" stop-opacity="0.7152"/>
<stop offset="0.3975" stop-color="#F5AE77" stop-opacity="0.5939"/>
<stop offset="0.5212" stop-color="#F3A05F" stop-opacity="0.4671"/>
<stop offset="0.6525" stop-color="#F2964E" stop-opacity="0.3326"/>
<stop offset="0.7964" stop-color="#F19044" stop-opacity="0.1852"/>
<stop offset="0.9771" stop-color="#F18E41" stop-opacity="0"/>
</linearGradient>
<clipPath id="clip0_1009_96475">
<rect width="43.7937" height="42.6607" fill="white"/>
</clipPath>
</defs>
</svg>
